# xmcd CD database file
#
# Track frame offsets:
#	150
#	18067
#	38911
#	44509
#	56787
#	72929
#	89942
#	105836
#	121600
#	136687
#	142249
#	158181
#	175111
#	179078
#	190593
#	213610
#	227119
#
# Disc length: 3364 seconds
#
# Revision: 0
# Processed by: cddbd v1.5.2PL0 Copyright (c) Steve Scherf et al.
# Submitted via: CDex 1.70beta2
#
DISCID=f10d2211
DTITLE=George Melly - Farewell Blues
DYEAR=1900
DGENRE=Blues
TTITLE0=Salty Dog
TTITLE1=Empty Bed Blues
TTITLE2=George on his school days
TTITLE3=Take Me For A Buggy Ride!
TTITLE4=If You'se A Viper
TTITLE5=Send Me To The 'lectric Chair
TTITLE6=George recalls landlord
TTITLE7=Down In The Dumps
TTITLE8=Young Woman's BLues
TTITLE9=George remembers Mick Mulligan
TTITLE10=I Need A Little Sugar In My Bowl
TTITLE11=Sweet Lorraine
TTITLE12=George remembers the Feetwarmers
TTITLE13=Lulu's Back In Town
TTITLE14=Cemetery Blues
TTITLE15=My Very Good Friend The Milkman
TTITLE16=Brother's Blues And Requiem
EXTD=
EXTT0=
EXTT1=
EXTT2=
EXTT3=
EXTT4=
EXTT5=
EXTT6=
EXTT7=
EXTT8=
EXTT9=
EXTT10=
EXTT11=
EXTT12=
EXTT13=
EXTT14=
EXTT15=
EXTT16=
PLAYORDER=
